<?xml version="1.0" encoding="utf-8"?>
<!-- Generator: Adobe Illustrator 21.1.0, SVG Export Plug-In . SVG Version: 6.00 Build 0)  -->
<svg version="1.1" id="Layer_1" xmlns="http://www.w3.org/2000/svg" xmlns:xlink="http://www.w3.org/1999/xlink" x="0px" y="0px"
	 viewBox="0 0 150.4 147.3" style="enable-background:new 0 0 150.4 147.3;" xml:space="preserve">
<style type="text/css">
	.st0{fill:#FFFFFF;}
</style>
<g>
	<path class="st0" d="M141.9,147.3H20.2C9,147.3,0,138.3,0,127.1V5.4C0,2.4,2.4,0,5.4,0l104.7,0c0.4,0,0.7,0.1,1,0.4
		c4.5,4.4,1.5,9.8-2.9,9.8h-88c-5.5,0-9.9,4.4-9.9,9.9v107c0,5.5,4.4,9.9,9.9,9.9h114.3c1.5,0,2.7-1.2,2.7-2.7v-88
		c0-0.4,0.1-0.7,0.4-1c4.4-4.5,9.8-1.5,9.8,2.9v93.6C147.3,144.9,144.9,147.3,141.9,147.3z"/>
</g>
<g>
	<path class="st0" d="M66.4,122.3c-1.5,0-2.9-0.1-4.4-0.2c-9.5-0.9-16.2-4.3-16.5-4.4c-1.4-0.7-2.4-2.1-2.7-3.7
		c-0.3-1.6,0.2-3.2,1.3-4.4L141.5,3c1.9-2.1,5.2-2.2,7.2-0.3c2.1,1.9,2.2,5.2,0.3,7.2L56.8,110.8c7.6,1.9,20.6,2.8,32.3-7.6
		c18.8-16.7,17.5-34.3,17.4-35c-0.3-2.8,1.8-5.3,4.6-5.6c2.8-0.3,5.3,1.8,5.6,4.6c0.1,0.9,2,23.4-20.8,43.7
		C87.5,118.4,77.4,122.3,66.4,122.3z"/>
</g>
<g>
	<path class="st0" d="M77.8,47.1h-45c-2.8,0-5.1-2.3-5.1-5.1c0-2.8,2.3-5.1,5.1-5.1h45c2.8,0,5.1,2.3,5.1,5.1
		C82.9,44.8,80.6,47.1,77.8,47.1z"/>
</g>
<g>
	<path class="st0" d="M52.2,78.8H32.7c-2.8,0-5.1-2.3-5.1-5.1c0-2.8,2.3-5.1,5.1-5.1h19.4c2.8,0,5.1,2.3,5.1,5.1
		C57.3,76.5,55,78.8,52.2,78.8z"/>
</g>
</svg>
