<?xml version="1.0" encoding="utf-8"?>
<!-- Generator: Adobe Illustrator 21.1.0, SVG Export Plug-In . SVG Version: 6.00 Build 0)  -->
<svg version="1.1" id="Layer_1" xmlns="http://www.w3.org/2000/svg" xmlns:xlink="http://www.w3.org/1999/xlink" x="0px" y="0px"
	 viewBox="0 0 193.7 193.7" style="enable-background:new 0 0 193.7 193.7;" xml:space="preserve">
<style type="text/css">
	.st0{fill:url(#SVGID_1_);}
	.st1{fill:#FFFFFF;}
</style>
<linearGradient id="SVGID_1_" gradientUnits="userSpaceOnUse" x1="0" y1="96.8434" x2="193.6868" y2="96.8434">
	<stop  offset="0" style="stop-color:#FC6E51"/>
	<stop  offset="1" style="stop-color:#FF9282"/>
</linearGradient>
<path class="st0" d="M178.7,193.7H15c-8.3,0-15-6.7-15-15V15C0,6.7,6.7,0,15,0h163.7c8.3,0,15,6.7,15,15v163.7
	C193.7,187,187,193.7,178.7,193.7z"/>
<g>
	<g>
		<path class="st1" d="M136.1,152.8H54.8c-8.4,0-15.3-6.9-15.3-15.3V56.2c0-8.4,6.9-15.3,15.3-15.3h66.9c2.1,0,3.9,1.7,3.9,3.9
			s-1.7,3.9-3.9,3.9H54.8c-4.1,0-7.5,3.4-7.5,7.5v81.3c0,4.1,3.4,7.5,7.5,7.5h81.3c4.1,0,7.5-3.4,7.5-7.5V77.6
			c0-2.1,1.7-3.9,3.9-3.9s3.9,1.7,3.9,3.9v59.9C151.4,145.9,144.6,152.8,136.1,152.8z"/>
	</g>
	<g>
		<path class="st1" d="M89.8,133.6c-1.1,0-2.2-0.1-3.4-0.2c-7.2-0.7-12.3-3.2-12.5-3.4c-1.1-0.6-1.8-1.6-2-2.8
			c-0.2-1.2,0.1-2.4,1-3.3l73.8-80.7c1.4-1.6,3.9-1.7,5.5-0.2c1.6,1.4,1.7,3.9,0.2,5.5L82.5,125c5.8,1.5,15.6,2.1,24.5-5.7
			c14.2-12.6,13.3-26,13.2-26.5c-0.2-2.1,1.3-4,3.5-4.2c2.1-0.2,4,1.4,4.3,3.5c0.1,0.7,1.6,17.7-15.8,33.1
			C105.8,130.7,98.1,133.6,89.8,133.6z"/>
	</g>
</g>
<g>
	<path class="st1" d="M100.7,76.7H66.6c-2.1,0-3.9-1.7-3.9-3.9s1.7-3.9,3.9-3.9h34.1c2.1,0,3.9,1.7,3.9,3.9S102.9,76.7,100.7,76.7z"
		/>
</g>
<g>
	<path class="st1" d="M81.3,100.7H66.6c-2.1,0-3.9-1.7-3.9-3.9s1.7-3.9,3.9-3.9h14.7c2.1,0,3.9,1.7,3.9,3.9S83.5,100.7,81.3,100.7z"
		/>
</g>
</svg>
